<svg width="15" height="12" viewBox="0 0 15 12" fill="none" xmlns="http://www.w3.org/2000/svg">
<path d="M13.2227 3.40625C13.7695 2.99609 14.2617 2.50391 14.6445 1.92969C14.1523 2.14844 13.5781 2.3125 13.0039 2.36719C13.6055 2.01172 14.043 1.46484 14.2617 0.78125C13.7148 1.10938 13.0859 1.35547 12.457 1.49219C11.9102 0.917969 11.1719 0.589844 10.3516 0.589844C8.76562 0.589844 7.48047 1.875 7.48047 3.46094C7.48047 3.67969 7.50781 3.89844 7.5625 4.11719C5.18359 3.98047 3.05078 2.83203 1.62891 1.10938C1.38281 1.51953 1.24609 2.01172 1.24609 2.55859C1.24609 3.54297 1.73828 4.41797 2.53125 4.9375C2.06641 4.91016 1.60156 4.80078 1.21875 4.58203V4.60938C1.21875 6.00391 2.20312 7.15234 3.51562 7.42578C3.29688 7.48047 3.02344 7.53516 2.77734 7.53516C2.58594 7.53516 2.42188 7.50781 2.23047 7.48047C2.58594 8.62891 3.65234 9.44922 4.91016 9.47656C3.92578 10.2422 2.69531 10.707 1.35547 10.707C1.10938 10.707 0.890625 10.6797 0.671875 10.6523C1.92969 11.4727 3.43359 11.9375 5.07422 11.9375C10.3516 11.9375 13.2227 7.58984 13.2227 3.78906C13.2227 3.65234 13.2227 3.54297 13.2227 3.40625Z" fill="#1DA1F2"/>
</svg>
