<svg width="16" height="11" viewBox="0 0 16 11" fill="none" xmlns="http://www.w3.org/2000/svg">
<path d="M14.7461 1.66797C14.582 1.01172 14.0625 0.492188 13.4336 0.328125C12.2578 0 7.60938 0 7.60938 0C7.60938 0 2.93359 0 1.75781 0.328125C1.12891 0.492188 0.609375 1.01172 0.445312 1.66797C0.117188 2.81641 0.117188 5.27734 0.117188 5.27734C0.117188 5.27734 0.117188 7.71094 0.445312 8.88672C0.609375 9.54297 1.12891 10.0352 1.75781 10.1992C2.93359 10.5 7.60938 10.5 7.60938 10.5C7.60938 10.5 12.2578 10.5 13.4336 10.1992C14.0625 10.0352 14.582 9.54297 14.7461 8.88672C15.0742 7.71094 15.0742 5.27734 15.0742 5.27734C15.0742 5.27734 15.0742 2.81641 14.7461 1.66797ZM6.07812 7.49219V3.0625L9.96094 5.27734L6.07812 7.49219Z" fill="#FF0000"/>
</svg>
